<svg xmlns="http://www.w3.org/2000/svg" viewBox="0 0 200 200">
  <defs>
    <linearGradient id="bg" x1="0%" y1="0%" x2="100%" y2="100%">
      <stop offset="0%" style="stop-color:#667eea"/>
      <stop offset="100%" style="stop-color:#764ba2"/>
    </linearGradient>
  </defs>
  <!-- Background circle -->
  <circle cx="100" cy="100" r="95" fill="url(#bg)"/>
  <!-- Cross in background -->
  <rect x="90" y="30" width="20" height="80" fill="rgba(255,255,255,0.2)" rx="2"/>
  <rect x="60" y="55" width="80" height="20" fill="rgba(255,255,255,0.2)" rx="2"/>
  <!-- Dove (simple design) -->
  <path d="M140 80 C130 60, 110 55, 90 65 C70 75, 65 95, 75 115 C80 125, 95 130, 110 125 C115 123, 125 115, 130 100 C145 85, 155 80, 160 75 L140 80 Z" fill="white"/>
  <ellipse cx="100" cy="90" rx="8" ry="6" fill="white"/>
  <!-- Wing detail -->
  <path d="M95 85 Q75 70, 55 80 Q75 85, 90 95 Z" fill="rgba(255,255,255,0.8)"/>
  <!-- Text "AMEN!" -->
  <text x="100" y="165" font-family="Arial Black, sans-serif" font-size="28" font-weight="bold" fill="white" text-anchor="middle">AMEN!</text>
</svg>
